<svg preserveAspectRatio="none" width="100%" height="100%" overflow="visible" style="display: block;" viewBox="0 0 36 36" fill="none" xmlns="http://www.w3.org/2000/svg">
<path id="Vector" d="M2 26L11.172 16.828C11.9221 16.0781 12.9393 15.6569 14 15.6569C15.0607 15.6569 16.0779 16.0781 16.828 16.828L26 26M22 22L25.172 18.828C25.9221 18.0781 26.9393 17.6569 28 17.6569C29.0607 17.6569 30.0779 18.0781 30.828 18.828L34 22M22 10H22.02M6 34H30C31.0609 34 32.0783 33.5786 32.8284 32.8284C33.5786 32.0783 34 31.0609 34 30V6C34 4.93913 33.5786 3.92172 32.8284 3.17157C32.0783 2.42143 31.0609 2 30 2H6C4.93913 2 3.92172 2.42143 3.17157 3.17157C2.42143 3.92172 2 4.93913 2 6V30C2 31.0609 2.42143 32.0783 3.17157 32.8284C3.92172 33.5786 4.93913 34 6 34Z" stroke="var(--stroke-0, #4A5565)" stroke-width="4" stroke-linecap="round" stroke-linejoin="round"/>
</svg>
