<svg preserveAspectRatio="none" width="100%" height="100%" overflow="visible" style="display: block;" viewBox="0 0 53.1979 85.6503" fill="none" xmlns="http://www.w3.org/2000/svg">
<g id="Group">
<path id="Vector" d="M45.6208 32.9435C47.0279 31.832 50.3211 29.2285 50.3211 22.922V9.92785H51.8912C52.6094 9.92785 53.1977 9.26176 53.1977 8.44883V1.4783C53.1977 0.665369 52.6094 0 51.8912 0H1.3054C0.586822 0 0 0.665369 0 1.4783V8.44883C0 9.26194 0.586822 9.92785 1.3054 9.92785H2.8759V23.1576C2.8759 29.4037 4.55578 30.8661 7.52379 32.9145L20.4355 41.8229V45.6221C17.1838 47.8363 8.68879 53.6322 7.57511 54.513C6.1693 55.6238 2.87606 58.2264 2.87606 64.5347V75.7225H1.30556C0.586981 75.7225 0.000159809 76.388 0.000159809 77.2009V84.1711C0.000159809 84.9841 0.586981 85.6503 1.30556 85.6503H51.8913C52.6096 85.6503 53.1978 84.9841 53.1978 84.1711V77.2009C53.1978 76.388 52.6096 75.7225 51.8913 75.7225H50.3213V64.2973C50.3213 58.0523 48.6414 56.5895 45.6726 54.5413L32.7624 45.6331V41.8334C36.0129 39.62 44.5084 33.8247 45.6208 32.9435ZM29.1877 49.4019L43.2262 59.0882C44.3053 59.8322 44.8798 60.2421 45.1451 60.7181C45.4643 61.2909 45.6187 62.4611 45.6187 64.2971V75.7223H7.57703V64.5345C7.57703 61.0027 9.13107 59.7748 10.2659 58.878C11.1525 58.1783 18.9628 52.8329 23.9967 49.411C24.7037 48.9297 25.1367 48.0637 25.1367 47.1277V40.3268C25.1367 39.3993 24.7103 38.5375 24.009 38.0546L9.96909 28.3675C8.89202 27.6243 8.31767 27.2144 8.05176 26.7364C7.73197 26.165 7.57671 24.9936 7.57671 23.1576V9.92803H45.6186V22.9222C45.6186 26.4527 44.0645 27.6817 42.9304 28.5774C42.0438 29.2784 34.2341 34.6236 29.1996 38.0455C28.4919 38.5268 28.0587 39.3929 28.0587 40.327V47.1279C28.059 48.057 28.4874 48.9183 29.1877 49.4019Z" fill="var(--fill-0, black)"/>
<path id="Vector_2" d="M9.81268 65.1078C9.49288 65.3783 9.31716 65.5608 9.31716 66.2068C9.31716 66.8539 9.31716 73.0901 9.31716 73.0901C9.31716 73.0901 9.25416 73.7612 9.92173 73.7612C10.2457 73.7612 18.3048 73.7712 26.5369 73.7813C34.7687 73.771 42.8285 73.7612 43.1513 73.7612C43.8183 73.7612 43.7553 73.0901 43.7553 73.0901C43.7553 73.0901 43.7553 66.8543 43.7553 66.2068C43.7553 65.5608 43.5791 65.3783 43.2605 65.1078C41.0012 63.1955 30.9574 54.222 26.5368 54.222C22.1148 54.2216 12.0706 63.1957 9.81268 65.1078Z" fill="var(--fill-0, black)"/>
</g>
</svg>
