<svg preserveAspectRatio="none" width="100%" height="100%" overflow="visible" style="display: block;" viewBox="0 0 47.5 38" fill="none" xmlns="http://www.w3.org/2000/svg">
<path id="icon" d="M4.75 38C3.44375 38 2.31563 37.5448 1.36563 36.6344C0.455208 35.6844 0 34.5563 0 33.25V4.75C0 3.44375 0.455208 2.33542 1.36563 1.425C2.31563 0.475 3.44375 0 4.75 0H42.75C44.0563 0 45.1646 0.475 46.075 1.425C47.025 2.33542 47.5 3.44375 47.5 4.75V33.25C47.5 34.5563 47.025 35.6844 46.075 36.6344C45.1646 37.5448 44.0563 38 42.75 38H4.75ZM23.75 21.375L42.75 9.5V4.75L23.75 16.625L4.75 4.75V9.5L23.75 21.375Z" fill="var(--fill-0, white)"/>
</svg>
