<svg preserveAspectRatio="none" width="100%" height="100%" overflow="visible" style="display: block;" viewBox="0 0 50.3463 50.3463" fill="none" xmlns="http://www.w3.org/2000/svg">
<g id="ant-design:facebook-filled">
<path id="Vector" d="M43.2659 5.50662H7.0795C6.20926 5.50662 5.50618 6.2097 5.50618 7.07994V43.2663C5.50618 44.1366 6.20926 44.8396 7.0795 44.8396H43.2659C44.1361 44.8396 44.8392 44.1366 44.8392 43.2663V7.07994C44.8392 6.2097 44.1361 5.50662 43.2659 5.50662ZM38.7229 16.9869H35.5812C33.118 16.9869 32.641 18.1571 32.641 19.8779V23.6686H38.5213L37.7543 29.603H32.641V44.8396H26.51V29.6079H21.382V23.6686H26.51V19.2928C26.51 14.214 29.6124 11.4459 34.1455 11.4459C36.3187 11.4459 38.1821 11.6082 38.7278 11.6819V16.9869H38.7229Z" fill="var(--fill-0, white)"/>
</g>
</svg>
