<svg preserveAspectRatio="none" width="100%" height="100%" overflow="visible" style="display: block;" viewBox="0 0 44 44" fill="none" xmlns="http://www.w3.org/2000/svg">
<path id="Icon" d="M33 11H33.02M12 2H32C37.5228 2 42 6.47715 42 12V32C42 37.5228 37.5228 42 32 42H12C6.47715 42 2 37.5228 2 32V12C2 6.47715 6.47715 2 12 2ZM30 20.74C30.2468 22.4045 29.9625 24.1044 29.1875 25.598C28.4125 27.0916 27.1863 28.3028 25.6833 29.0593C24.1802 29.8159 22.4769 30.0792 20.8156 29.8119C19.1543 29.5445 17.6195 28.7602 16.4297 27.5703C15.2398 26.3805 14.4555 24.8457 14.1881 23.1844C13.9208 21.5231 14.1841 19.8198 14.9407 18.3167C15.6972 16.8137 16.9084 15.5875 18.402 14.8125C19.8956 14.0375 21.5955 13.7532 23.26 14C24.9578 14.2518 26.5297 15.0429 27.7434 16.2566C28.9571 17.4703 29.7482 19.0422 30 20.74Z" stroke="var(--stroke-0, white)" stroke-width="4" stroke-linecap="round" stroke-linejoin="round"/>
</svg>
