<svg preserveAspectRatio="none" width="100%" height="100%" overflow="visible" style="display: block;" viewBox="0 0 256.259 37.7048" fill="none" xmlns="http://www.w3.org/2000/svg">
<g id="Frame 27">
<circle id="Ellipse 4" cx="12.8573" cy="18.8524" r="12.8573" fill="var(--fill-0, white)"/>
<circle id="Ellipse 5" cx="56.5696" cy="18.8524" r="12.855" fill="var(--fill-0, white)"/>
<circle id="Ellipse 6" cx="100.28" cy="18.8524" r="12.855" fill="var(--fill-0, white)"/>
<circle id="Ellipse 7" cx="143.99" cy="18.8524" r="12.855" fill="var(--fill-0, white)"/>
<path id="Ellipse 10" d="M212.549 18.8524C212.549 29.2643 204.109 37.7048 193.697 37.7048C183.285 37.7048 174.845 29.2643 174.845 18.8524C174.845 8.44051 183.285 0 193.697 0C204.109 0 212.549 8.44051 212.549 18.8524ZM186.156 18.8524C186.156 23.0172 189.532 26.3934 193.697 26.3934C197.862 26.3934 201.238 23.0172 201.238 18.8524C201.238 14.6877 197.862 11.3115 193.697 11.3115C189.532 11.3115 186.156 14.6877 186.156 18.8524Z" fill="var(--fill-0, white)"/>
<circle id="Ellipse 8" cx="243.404" cy="18.8524" r="12.855" fill="var(--fill-0, white)"/>
</g>
</svg>
