<svg class="hero-snowfield-flake" aria-hidden="true" focusable="false" version="1.0" xmlns="http://www.w3.org/2000/svg" width="100%" height="100%" viewBox="0 0 1128.000000 1280.000000"
 preserveAspectRatio="xMidYMid meet">
<metadata>
Created by potrace 1.15, written by Peter Selinger 2001-2017
</metadata>
<g transform="translate(0.000000,1280.000000) scale(0.100000,-0.100000)"
fill="currentColor" stroke="none">
<path d="M5535 12794 c-71 -12 -195 -56 -260 -94 -168 -99 -277 -234 -346
-430 -22 -61 -23 -83 -27 -382 -2 -175 -5 -318 -8 -318 -2 0 -25 16 -51 37
-59 44 -166 95 -253 119 -87 24 -271 24 -360 1 -201 -53 -384 -198 -475 -377
-62 -124 -80 -199 -80 -345 1 -143 15 -215 65 -320 16 -33 283 -429 594 -880
l565 -820 1 -647 c0 -357 -2 -648 -4 -648 -10 0 -1103 634 -1118 649 -9 9
-193 387 -408 840 -461 970 -455 958 -513 1038 -89 121 -250 227 -407 269 -89
24 -282 25 -368 1 -264 -72 -461 -268 -532 -530 -16 -58 -22 -107 -22 -192 0
-63 3 -119 7 -125 3 -5 4 -10 1 -10 -2 0 -111 61 -241 136 -247 143 -322 176
-445 195 -325 50 -669 -142 -792 -443 -118 -291 -49 -612 178 -827 68 -64 118
-98 317 -211 130 -74 236 -137 237 -140 0 -3 -21 -13 -47 -22 -67 -24 -163
-90 -231 -158 -119 -119 -192 -271 -213 -444 -33 -261 92 -530 317 -686 96
-66 203 -109 318 -126 100 -15 4 -21 1407 91 l686 55 561 -322 c309 -178 561
-325 561 -328 0 -3 -252 -150 -561 -328 l-561 -322 -686 55 c-1403 112 -1307
106 -1407 91 -326 -49 -575 -294 -630 -621 -48 -284 83 -572 333 -736 42 -27
93 -54 114 -61 22 -6 39 -14 39 -17 -1 -3 -107 -67 -238 -141 -201 -115 -249
-146 -317 -212 -384 -367 -280 -991 202 -1209 78 -36 223 -69 303 -69 166 0
265 36 555 204 129 75 238 136 241 136 3 0 2 -5 -1 -10 -4 -6 -7 -62 -7 -125
0 -180 51 -329 159 -466 92 -118 241 -215 393 -256 89 -24 270 -24 365 1 161
41 320 146 412 269 51 69 114 196 587 1192 l328 690 555 320 c305 176 559 322
564 323 5 2 9 -267 9 -645 l-1 -648 -565 -820 c-311 -451 -578 -847 -594 -880
-50 -105 -64 -177 -65 -320 0 -146 18 -221 80 -345 91 -179 274 -324 475 -377
89 -23 273 -23 360 1 87 24 194 75 253 119 26 21 49 37 51 37 3 0 6 -143 8
-318 4 -299 5 -321 27 -382 89 -251 261 -421 501 -497 74 -24 102 -27 210 -27
102 0 139 4 200 23 247 77 422 248 511 501 22 61 23 83 27 382 2 175 5 318 8
318 2 0 25 -16 51 -37 57 -43 163 -93 253 -119 87 -24 269 -25 360 -1 202 53
382 196 475 377 62 123 80 199 80 345 0 144 -15 215 -65 319 -16 33 -283 430
-594 881 l-565 820 -1 648 c0 374 4 647 9 645 5 -1 259 -147 564 -323 l555
-320 328 -690 c489 -1030 544 -1141 600 -1210 169 -205 454 -311 710 -262 382
73 642 418 603 800 -3 34 -5 63 -4 65 1 1 109 -59 239 -134 248 -143 323 -176
446 -195 325 -50 669 142 792 443 118 291 49 612 -178 827 -68 64 -118 98
-317 211 -130 74 -236 138 -237 141 0 3 17 11 39 17 55 17 178 100 240 163
158 159 240 393 211 606 -45 341 -296 597 -634 649 -100 15 -2 21 -1407 -91
l-686 -55 -561 322 c-309 178 -561 325 -561 328 0 3 252 150 561 328 l561 322
686 -55 c1405 -112 1307 -106 1407 -91 192 29 367 130 478 275 92 120 137 228
156 374 29 213 -53 447 -211 606 -62 63 -185 146 -240 163 -22 6 -39 14 -39
17 1 3 108 67 238 141 219 125 244 142 328 225 78 77 98 104 138 185 55 114
75 185 83 305 16 245 -99 486 -304 631 -208 149 -482 183 -713 90 -31 -13
-159 -82 -284 -155 -126 -72 -230 -130 -231 -129 -1 2 1 31 4 66 34 328 -160
643 -468 761 -298 114 -643 23 -844 -224 -62 -76 -68 -89 -532 -1065 -212
-448 -394 -822 -403 -831 -15 -15 -1108 -649 -1118 -649 -2 0 -4 291 -4 648
l1 647 565 820 c311 451 578 848 594 881 50 104 65 175 65 319 0 146 -18 222
-80 345 -93 181 -273 324 -475 377 -91 24 -273 23 -360 -1 -90 -26 -196 -76
-253 -119 -26 -21 -49 -37 -51 -37 -3 0 -6 143 -8 318 -4 299 -5 321 -27 382
-112 317 -371 516 -686 525 -55 2 -113 1 -130 -1z m243 -406 c69 -26 154 -108
190 -185 l27 -58 5 -881 5 -882 290 421 c160 232 307 438 327 459 129 130 349
133 493 7 104 -92 144 -273 88 -399 -11 -25 -286 -432 -611 -904 l-592 -858 0
-1039 c0 -572 3 -1039 8 -1039 4 1 410 233 902 518 l894 517 446 937 c245 516
460 957 477 982 66 94 200 154 315 142 126 -13 251 -101 300 -213 25 -58 35
-166 19 -227 -6 -24 -110 -253 -231 -507 -121 -254 -220 -466 -220 -471 0 -5
17 2 38 15 124 78 1441 833 1476 845 61 24 178 20 248 -7 80 -31 150 -98 190
-179 29 -60 32 -76 32 -152 -1 -73 -5 -94 -31 -150 -17 -37 -49 -83 -74 -107
-28 -26 -302 -190 -758 -453 -392 -226 -724 -416 -737 -422 -13 -6 -24 -14
-24 -17 0 -3 235 -25 523 -48 443 -35 531 -45 579 -63 76 -28 159 -104 195
-178 25 -51 28 -68 28 -157 0 -90 -3 -105 -28 -153 -62 -118 -167 -191 -286
-200 -37 -2 -511 31 -1092 78 l-1026 82 -894 -516 c-492 -284 -895 -520 -897
-524 -1 -4 401 -241 895 -526 l897 -518 1025 82 c574 46 1055 80 1091 78 117
-9 220 -78 281 -190 32 -60 34 -68 34 -163 0 -89 -3 -106 -28 -157 -17 -34
-50 -77 -82 -107 -95 -86 -99 -87 -695 -135 l-525 -42 95 -56 c52 -31 385
-223 740 -428 413 -238 661 -387 689 -413 25 -24 57 -70 74 -107 26 -56 30
-77 31 -150 0 -76 -3 -92 -32 -152 -40 -81 -110 -148 -190 -179 -69 -27 -187
-31 -248 -8 -32 12 -1095 621 -1441 825 -40 24 -73 40 -73 36 0 -4 99 -216
220 -471 121 -254 225 -483 231 -507 16 -61 6 -169 -19 -227 -31 -70 -111
-149 -185 -183 -84 -38 -184 -40 -276 -5 -96 37 -155 100 -220 236 -29 61
-201 421 -381 800 -180 380 -361 760 -402 846 l-75 155 -895 517 c-492 284
-898 517 -902 517 -3 0 -6 -467 -6 -1039 l0 -1039 592 -858 c325 -472 600
-879 611 -904 56 -126 16 -307 -88 -399 -144 -126 -364 -123 -493 7 -20 21
-167 227 -327 459 l-290 421 -5 -882 -5 -881 -27 -58 c-37 -79 -120 -159 -195
-187 -79 -30 -187 -30 -266 0 -75 28 -158 108 -195 187 l-27 58 -5 881 -5 882
-290 -421 c-159 -232 -307 -438 -327 -459 -129 -130 -349 -133 -493 -7 -104
92 -144 273 -88 399 11 25 286 432 611 904 l592 858 0 1040 c0 891 -2 1039
-14 1035 -24 -9 -1770 -1019 -1783 -1031 -7 -6 -202 -409 -433 -896 -232 -487
-435 -914 -452 -950 -114 -238 -412 -290 -588 -104 -28 30 -61 75 -72 101 -26
58 -35 166 -19 229 7 25 111 254 231 507 121 254 220 465 220 468 0 4 -334
-186 -743 -422 -408 -236 -760 -435 -782 -442 -22 -6 -71 -11 -110 -11 -140 2
-256 76 -317 202 -29 60 -32 76 -32 152 0 106 32 184 102 253 34 33 228 150
692 417 355 205 688 397 740 428 l95 56 -525 42 c-596 48 -600 49 -695 135
-32 30 -65 73 -82 107 -25 51 -28 68 -28 157 0 84 4 107 24 147 57 117 171
197 290 206 37 2 510 -31 1091 -78 l1026 -82 897 518 c494 285 896 521 895
526 -2 4 -405 240 -897 524 l-895 516 -1025 -82 c-581 -47 -1055 -80 -1092
-78 -119 9 -233 89 -290 206 -20 40 -24 63 -24 147 0 89 3 106 28 157 17 34
50 77 82 107 95 86 99 87 695 135 l525 42 -95 56 c-52 31 -385 223 -740 428
-463 267 -658 384 -692 417 -70 69 -102 147 -102 253 0 76 3 92 32 152 40 81
110 148 190 179 69 27 187 31 248 8 32 -12 1089 -617 1441 -825 40 -24 73 -40
73 -36 0 4 -99 215 -220 469 -121 254 -225 483 -231 508 -16 62 -7 170 19 228
49 112 174 200 300 213 116 13 264 -57 323 -152 13 -21 224 -459 469 -974
l445 -935 895 -517 c492 -285 898 -517 903 -518 4 0 7 467 7 1039 l0 1039
-592 858 c-325 472 -600 879 -611 904 -56 126 -16 307 88 399 144 126 364 123
493 -7 20 -21 168 -227 327 -459 l290 -421 5 882 5 881 27 57 c83 178 277 255
466 186z"/>
</g>
</svg>
