<svg class="hero-snowfield-flake" aria-hidden="true" focusable="false" version="1.0" xmlns="http://www.w3.org/2000/svg" width="100%" height="100%" viewBox="0 0 1136.000000 1280.000000"
 preserveAspectRatio="xMidYMid meet">
<metadata>
Created by potrace 1.15, written by Peter Selinger 2001-2017
</metadata>
<g transform="translate(0.000000,1280.000000) scale(0.100000,-0.100000)"
fill="currentColor" stroke="none">
<path d="M5581 12774 c-32 -16 -64 -43 -82 -67 -57 -79 -59 -95 -59 -616 l0
-476 -272 272 c-150 150 -286 277 -301 282 -16 6 -49 11 -74 11 -127 0 -216
-117 -183 -240 11 -40 54 -87 421 -455 l409 -411 0 -574 0 -575 -522 522
c-509 507 -524 521 -574 533 -90 20 -187 -26 -220 -107 -17 -39 -18 -111 -3
-150 5 -15 302 -320 665 -683 l654 -655 0 -665 0 -665 -579 579 -578 578 -13
57 c-16 72 -82 143 -150 161 -115 31 -241 -37 -279 -149 -27 -81 -7 -156 59
-222 l49 -49 76 -287 c42 -159 137 -513 211 -787 74 -275 133 -500 131 -501
-1 -2 -862 494 -1135 654 -7 4 -116 394 -243 867 -126 472 -235 875 -241 894
-23 72 -74 117 -155 134 -67 15 -163 -36 -199 -105 -7 -15 -14 -50 -14 -77 0
-32 64 -289 184 -738 102 -379 184 -690 182 -691 -2 -2 -220 122 -896 514
l-96 55 -133 502 c-173 649 -163 616 -210 659 -67 60 -138 69 -223 26 -45 -23
-73 -62 -89 -122 -12 -43 -9 -59 85 -412 54 -202 96 -369 93 -371 -2 -3 -173
93 -378 212 -478 277 -460 267 -537 272 -76 5 -134 -14 -181 -60 -51 -49 -65
-85 -65 -158 0 -76 21 -127 74 -180 20 -19 220 -140 444 -269 224 -129 403
-237 399 -241 -4 -3 -165 -48 -358 -99 -226 -60 -363 -102 -387 -117 -50 -32
-81 -94 -80 -161 0 -63 21 -103 75 -146 63 -51 112 -49 372 21 121 33 365 99
541 146 l322 87 497 -287 497 -288 -78 -22 c-44 -12 -351 -95 -684 -184 -333
-89 -623 -170 -645 -179 -51 -22 -91 -69 -106 -124 -30 -111 65 -236 180 -237
32 0 229 52 1436 376 192 52 356 94 362 94 23 0 1156 -659 1142 -665 -8 -2
-243 -66 -524 -141 -280 -75 -631 -169 -780 -208 -258 -69 -272 -72 -305 -58
-49 20 -131 17 -179 -7 -160 -82 -159 -320 2 -403 48 -24 127 -27 178 -5 33
13 59 7 719 -169 377 -101 731 -196 788 -211 56 -15 102 -30 102 -34 0 -4 -35
-27 -77 -51 -43 -24 -297 -171 -566 -326 -268 -155 -492 -282 -498 -282 -5 0
-213 55 -462 121 -249 67 -465 125 -482 129 -16 4 -208 55 -426 114 -218 58
-411 106 -430 106 -42 0 -107 -30 -136 -61 -23 -25 -53 -98 -53 -128 0 -63 47
-138 103 -167 17 -9 238 -72 491 -139 762 -204 921 -247 924 -250 1 -1 -80
-50 -180 -108 -101 -58 -324 -187 -496 -286 l-314 -181 -545 146 c-612 164
-619 165 -691 107 -53 -43 -74 -83 -74 -146 -1 -67 30 -129 80 -161 24 -15
159 -56 387 -116 193 -51 353 -96 358 -99 4 -4 -176 -113 -400 -242 -223 -129
-423 -250 -443 -269 -65 -64 -92 -157 -70 -238 14 -53 72 -119 125 -143 46
-21 136 -25 186 -7 18 6 215 117 438 245 222 128 406 231 409 229 2 -3 -39
-166 -92 -364 -53 -197 -96 -367 -96 -377 0 -42 27 -102 61 -136 72 -72 181
-73 260 -2 47 43 36 9 210 660 l134 502 494 285 c272 157 496 285 497 283 2
-1 -80 -312 -182 -691 -120 -449 -184 -706 -184 -738 0 -59 17 -94 64 -136
104 -91 262 -46 304 88 7 19 115 422 241 894 127 473 236 863 243 867 139 83
1134 656 1135 655 2 -2 -48 -193 -111 -427 -63 -233 -158 -587 -211 -787 l-96
-362 -49 -49 c-74 -74 -89 -155 -46 -247 26 -56 74 -98 133 -120 83 -29 159
-11 224 55 37 37 49 57 59 102 l13 57 578 578 579 579 0 -665 0 -665 -654
-655 c-363 -363 -660 -668 -665 -683 -6 -16 -11 -49 -11 -74 0 -123 112 -211
234 -183 50 12 65 26 573 533 l523 522 0 -575 0 -575 -409 -410 c-428 -429
-431 -432 -431 -516 0 -40 46 -122 85 -148 39 -26 105 -37 162 -26 33 6 75 43
316 283 l277 276 0 -475 c0 -521 2 -537 59 -616 37 -52 118 -93 181 -93 63 0
144 41 181 93 57 79 59 95 59 616 l0 475 277 -276 c241 -240 283 -277 316
-283 57 -11 123 0 162 26 39 26 85 108 85 148 0 84 -3 87 -431 516 l-409 411
0 574 0 575 523 -522 c508 -507 523 -521 573 -533 122 -28 234 60 234 183 0
25 -5 58 -11 74 -5 15 -302 320 -665 683 l-654 655 0 665 0 665 579 -579 c531
-531 579 -582 585 -618 9 -55 28 -88 75 -131 109 -98 283 -60 347 77 43 92 28
173 -46 247 l-49 49 -90 337 c-49 186 -144 540 -210 787 -67 247 -120 450
-118 451 1 2 1034 -593 1135 -653 7 -5 116 -395 242 -867 127 -473 235 -876
242 -895 23 -73 74 -117 155 -134 70 -16 170 40 199 111 8 18 14 52 14 76 0
24 -80 341 -184 732 -102 379 -184 691 -182 692 1 2 225 -125 497 -282 l494
-286 134 -502 c174 -651 163 -617 210 -660 67 -60 138 -69 223 -26 45 23 73
62 90 122 11 44 8 59 -86 412 -54 201 -96 368 -94 371 3 2 187 -101 409 -229
223 -128 420 -239 438 -245 50 -18 140 -14 186 7 87 39 145 142 131 233 -9 62
-59 142 -108 176 -24 15 -217 129 -431 252 -213 123 -384 227 -380 231 5 3
166 48 358 99 193 51 365 101 383 112 49 30 82 94 82 159 0 66 -22 112 -72
152 -72 58 -80 57 -691 -107 l-545 -146 -444 256 c-243 141 -467 270 -496 286
-29 17 -52 32 -50 33 3 3 156 44 924 250 253 67 475 130 492 139 41 21 77 71
91 124 30 110 -63 231 -178 232 -19 0 -235 -54 -480 -119 -245 -66 -640 -172
-878 -235 -238 -64 -437 -116 -443 -116 -5 0 -229 127 -497 282 -269 155 -523
302 -565 326 -43 24 -78 47 -78 51 0 4 46 19 103 34 56 15 410 110 787 211
664 177 686 182 720 168 49 -20 131 -17 179 7 157 81 157 321 0 402 -48 24
-130 27 -179 7 -34 -14 -48 -11 -365 74 -181 48 -535 143 -785 209 -250 67
-458 124 -461 128 -4 3 250 154 564 335 l572 329 80 -20 c44 -11 276 -73 515
-137 239 -64 602 -162 805 -217 204 -54 386 -99 405 -99 116 1 209 122 179
233 -13 52 -50 102 -90 122 -25 14 -217 66 -1226 337 -106 29 -190 55 -185 59
4 4 227 133 496 288 l488 282 397 -106 c218 -59 463 -125 545 -147 179 -49
235 -49 293 -2 51 41 73 88 73 153 0 65 -33 129 -82 159 -18 11 -190 61 -383
112 -192 52 -354 97 -358 100 -5 4 166 108 380 230 213 123 407 237 431 252
49 34 99 114 108 176 14 91 -44 194 -131 233 -49 23 -149 25 -196 5 -19 -8
-214 -119 -434 -246 -220 -127 -401 -227 -403 -222 -1 5 40 169 93 364 52 194
95 362 95 372 0 119 -125 217 -239 186 -46 -12 -105 -59 -125 -99 -7 -14 -77
-270 -157 -568 l-144 -541 -494 -286 c-272 -157 -496 -284 -498 -283 -1 2 81
313 182 692 104 389 185 708 185 733 0 121 -113 211 -229 182 -57 -14 -101
-47 -124 -91 -10 -19 -123 -430 -252 -913 -129 -483 -236 -880 -237 -881 -2
-2 -250 -145 -553 -320 -302 -174 -561 -324 -573 -332 -22 -14 -23 -13 -19 4
3 10 99 366 212 792 l207 774 47 46 c74 73 90 156 47 248 -41 88 -144 143
-239 129 -89 -14 -169 -93 -182 -181 -6 -40 -39 -74 -586 -621 l-579 -579 0
665 0 665 646 645 c356 356 654 662 665 682 73 142 -57 304 -215 268 -50 -12
-65 -26 -573 -533 l-523 -522 0 575 0 574 409 411 c428 429 431 432 431 516 0
40 -46 122 -85 148 -39 26 -105 37 -162 26 -33 -6 -75 -43 -315 -283 l-278
-276 0 466 c0 298 -4 485 -11 518 -16 75 -64 139 -128 172 -70 37 -129 37
-200 2z m-141 -5563 c0 -337 -2 -392 -14 -388 -14 6 -657 376 -665 383 -4 4
-375 1384 -386 1437 -6 27 82 -56 529 -503 l536 -535 0 -394z m1356 721 c-106
-397 -195 -724 -197 -726 -9 -8 -668 -386 -673 -386 -3 0 -6 177 -6 392 l0
393 532 532 c293 293 534 530 535 526 2 -5 -84 -333 -191 -731z m-1931 -1334
c184 -106 334 -195 334 -198 0 -8 -658 -385 -677 -388 -10 -1 -272 65 -582
148 -311 84 -636 170 -722 193 -87 23 -158 44 -158 47 0 3 168 50 373 104 204
55 525 141 712 192 187 51 350 93 363 93 12 1 173 -86 357 -191z m2075 171
c92 -25 1032 -277 1223 -328 75 -20 137 -38 137 -41 0 -3 -98 -31 -218 -63
-119 -31 -443 -118 -720 -192 -277 -74 -510 -135 -518 -135 -15 0 -684 381
-684 390 0 11 666 389 685 390 11 0 54 -9 95 -21z m-2032 -2106 c-293 -293
-534 -530 -536 -528 -3 3 64 258 343 1299 23 87 49 162 56 167 8 4 160 93 339
196 l325 188 3 -395 2 -395 -532 -532z m1691 931 c4 -4 4 -4 219 -809 89 -330
164 -613 168 -630 5 -23 -111 87 -530 505 l-536 535 0 397 0 396 338 -195
c185 -107 339 -197 341 -199z"/>
<path d="M2840 11318 c-55 -38 -75 -73 -75 -133 0 -39 6 -61 21 -82 73 -98
195 -98 268 0 15 20 20 43 20 82 0 61 -19 95 -74 133 -23 15 -48 22 -80 22
-32 0 -57 -7 -80 -22z"/>
<path d="M8360 11318 c-55 -38 -74 -72 -74 -133 0 -39 5 -62 20 -82 73 -98
195 -98 268 0 15 21 21 43 21 82 0 88 -67 155 -155 155 -32 0 -57 -7 -80 -22z"/>
<path d="M3171 10741 c49 -103 102 -327 114 -488 8 -103 -9 -234 -39 -295
l-23 -48 43 0 c151 0 455 -210 637 -440 27 -34 27 -34 13 -5 -7 17 -28 75 -45
130 -80 262 -87 561 -14 671 l15 24 -53 0 c-69 0 -175 46 -296 126 -83 55
-275 235 -337 314 -16 21 -22 26 -15 11z m303 -415 c50 -33 124 -75 165 -93
57 -25 75 -37 73 -50 -9 -62 -12 -258 -4 -310 5 -35 7 -63 5 -63 -3 0 -32 20
-66 44 -67 47 -191 115 -246 134 -26 9 -32 16 -26 29 12 31 17 245 7 311 -5
34 -6 61 -3 60 3 -2 46 -30 95 -62z"/>
<path d="M8152 10707 c-156 -201 -450 -406 -598 -415 l-62 -4 25 -55 c65 -142
36 -490 -60 -734 l-26 -64 26 35 c46 61 236 244 303 291 135 96 255 149 335
149 l42 0 -23 48 c-37 73 -49 191 -34 340 12 136 54 315 94 405 14 32 23 57
22 57 -2 0 -22 -24 -44 -53z m-178 -454 c-3 -76 -2 -164 4 -196 l9 -59 -31
-11 c-52 -18 -178 -86 -243 -133 -34 -24 -63 -44 -65 -44 -3 0 0 33 5 73 7 60
5 178 -6 295 -2 20 8 27 71 54 40 16 114 58 165 93 50 35 93 64 94 64 2 1 0
-61 -3 -136z"/>
<path d="M1378 6725 c-64 -106 -310 -235 -563 -296 -44 -10 -95 -19 -112 -19
-55 0 -37 -17 25 -23 121 -13 339 -89 477 -167 83 -48 195 -147 195 -174 0
-27 14 -17 44 30 73 115 386 269 624 306 45 7 82 15 82 18 0 3 -37 11 -82 18
-239 37 -557 194 -628 311 -14 22 -27 40 -30 40 -3 0 -17 -20 -32 -44z m97
-175 c37 -28 111 -72 165 -98 55 -26 99 -49 99 -52 0 -3 -44 -26 -99 -52 -54
-26 -129 -70 -165 -98 l-68 -51 -26 24 c-41 39 -141 100 -225 138 -42 19 -76
36 -76 39 0 3 29 18 64 33 77 34 214 117 240 146 11 12 20 21 22 21 2 0 33
-23 69 -50z"/>
<path d="M9920 6729 c-71 -116 -388 -273 -629 -311 -44 -7 -81 -15 -81 -18 0
-3 37 -11 81 -18 243 -39 557 -194 629 -311 26 -43 40 -51 40 -25 0 27 112
126 195 174 138 78 356 154 478 167 31 3 57 9 57 13 0 4 -26 10 -57 13 -122
13 -340 89 -478 167 -83 48 -195 147 -195 174 0 26 -14 18 -40 -25z m59 -153
c34 -32 172 -115 244 -147 31 -13 57 -26 56 -29 0 -3 -34 -21 -77 -40 -85 -39
-183 -99 -223 -137 l-26 -24 -66 49 c-35 27 -110 71 -166 98 -55 27 -101 51
-101 54 0 3 45 26 99 52 54 27 127 70 162 97 35 27 66 50 68 50 3 1 16 -10 30
-23z"/>
<path d="M112 6553 c-38 -7 -99 -74 -107 -116 -12 -61 3 -108 46 -149 101 -96
263 -28 263 112 0 106 -90 174 -202 153z"/>
<path d="M11134 6542 c-119 -56 -117 -231 4 -284 168 -75 306 154 160 266 -47
35 -111 42 -164 18z"/>
<path d="M3894 3323 c-84 -113 -258 -267 -390 -346 -83 -50 -185 -87 -238 -87
l-43 0 24 -47 c47 -97 52 -270 13 -483 -18 -97 -61 -243 -89 -301 -8 -15 -2
-11 16 11 15 19 66 75 113 123 168 176 380 307 506 315 64 4 65 4 50 27 -50
76 -64 288 -32 475 17 98 67 274 92 323 20 38 11 34 -22 -10z m-187 -405 c-9
-76 -4 -269 9 -301 5 -14 1 -20 -15 -24 -44 -11 -158 -71 -236 -124 l-81 -54
0 175 c-1 96 -3 183 -5 193 -3 14 9 24 52 41 66 27 177 91 234 135 22 17 43
31 46 31 3 0 1 -33 -4 -72z"/>
<path d="M7457 3301 c105 -266 128 -640 46 -767 -13 -21 -12 -22 51 -26 126
-8 338 -139 506 -315 47 -48 97 -104 112 -123 l27 -35 -26 65 c-103 260 -130
599 -60 743 l24 47 -43 0 c-125 0 -360 144 -534 326 -41 44 -87 95 -102 114
l-27 35 26 -64z m282 -372 c49 -33 125 -76 168 -94 l78 -34 -5 -38 c-3 -21 -4
-108 -4 -194 l2 -157 -82 56 c-78 53 -192 113 -237 125 -17 5 -20 11 -15 29
12 44 18 223 9 296 -5 39 -8 72 -7 72 2 0 43 -27 93 -61z"/>
<path d="M2840 1748 c-55 -38 -75 -73 -75 -133 0 -39 6 -61 21 -82 73 -98 195
-98 268 0 15 20 20 43 20 82 0 61 -19 95 -74 133 -23 15 -48 22 -80 22 -32 0
-57 -7 -80 -22z"/>
<path d="M8360 1748 c-55 -38 -74 -72 -74 -133 0 -39 5 -62 20 -82 73 -98 195
-98 268 0 15 21 21 43 21 82 0 88 -67 155 -155 155 -32 0 -57 -7 -80 -22z"/>
</g>
</svg>
