<svg class="hero-snowfield-flake" aria-hidden="true" focusable="false" version="1.0" xmlns="http://www.w3.org/2000/svg" width="100%" height="100%" viewBox="0 0 1116.000000 1280.000000"
 preserveAspectRatio="xMidYMid meet">
<metadata>
Created by potrace 1.15, written by Peter Selinger 2001-2017
</metadata>
<g transform="translate(0.000000,1280.000000) scale(0.100000,-0.100000)"
fill="currentColor" stroke="none">
<path d="M5496 12785 c-57 -20 -108 -66 -138 -125 l-28 -52 0 -265 0 -264 -37
30 c-139 111 -333 21 -333 -154 0 -36 7 -69 19 -93 11 -20 94 -111 185 -202
l166 -165 0 -442 c0 -244 -3 -443 -7 -443 -4 0 -138 130 -298 288 -301 299
-317 312 -397 312 -67 0 -147 -49 -178 -110 -26 -52 -27 -138 -1 -188 11 -20
213 -230 450 -467 l431 -430 0 -627 c0 -346 -3 -628 -7 -628 -5 0 -332 257
-728 571 -640 508 -721 575 -731 608 -37 125 -149 211 -274 211 -112 0 -237
-81 -280 -182 -19 -43 -22 -65 -18 -128 5 -83 23 -126 73 -180 l33 -35 122
-825 c67 -454 127 -863 135 -910 7 -47 12 -86 10 -88 -3 -3 -1076 615 -1089
628 -4 4 -77 266 -162 582 -84 315 -159 585 -164 599 -26 63 -115 119 -187
119 -102 -1 -203 -101 -203 -201 0 -25 181 -725 205 -797 3 -7 1 -11 -3 -9
-336 191 -751 434 -763 446 -9 9 -40 106 -69 216 -65 247 -73 267 -122 310
-72 61 -166 65 -248 11 -57 -38 -85 -96 -84 -177 l1 -66 -213 124 c-234 135
-277 151 -365 132 -56 -12 -122 -58 -156 -108 -65 -97 -50 -233 35 -317 16
-16 122 -83 235 -148 114 -65 207 -122 207 -127 0 -4 -14 -11 -31 -14 -64 -14
-139 -118 -139 -191 0 -101 100 -204 199 -204 22 0 140 27 263 60 l223 60 125
-72 c546 -315 652 -378 639 -382 -8 -3 -182 -50 -386 -104 -205 -55 -388 -109
-405 -119 -18 -10 -46 -38 -63 -62 -26 -37 -30 -51 -30 -111 0 -60 4 -74 30
-112 56 -79 152 -108 255 -78 19 6 278 76 576 155 l541 145 274 -158 c151 -87
393 -227 539 -311 146 -84 268 -156 272 -159 4 -4 -180 -81 -410 -172 -229
-90 -615 -243 -858 -340 l-440 -175 -45 12 c-122 33 -266 -35 -324 -152 -28
-57 -28 -213 0 -270 58 -116 203 -184 325 -152 l45 12 380 -151 c209 -83 595
-236 857 -340 263 -104 474 -192 470 -195 -28 -26 -1090 -629 -1102 -626 -8 3
-244 66 -525 141 -280 75 -532 144 -559 151 -119 35 -212 10 -271 -73 -26 -38
-30 -52 -30 -112 0 -60 4 -74 30 -111 17 -24 45 -51 62 -62 18 -10 200 -63
405 -118 205 -55 379 -102 387 -105 8 -2 -161 -106 -375 -229 l-390 -224 -223
59 c-122 33 -240 60 -262 60 -99 0 -199 -103 -199 -204 0 -73 75 -177 139
-191 17 -3 31 -10 31 -14 0 -4 -89 -58 -198 -121 -108 -62 -212 -125 -229
-138 -18 -13 -47 -53 -64 -88 -28 -56 -31 -71 -26 -122 6 -67 26 -113 71 -160
38 -42 71 -59 134 -72 80 -18 125 -1 359 135 l214 124 -6 -53 c-11 -82 32
-168 100 -204 102 -53 231 -17 280 79 9 16 42 128 75 250 32 122 60 222 62
223 2 1 55 32 118 68 101 58 501 288 617 355 l42 24 -19 -68 c-103 -378 -190
-715 -190 -741 0 -101 101 -201 203 -202 69 0 150 48 182 110 7 14 81 282 165
595 84 314 157 578 164 588 10 16 1085 642 1091 635 1 -2 -58 -412 -132 -913
l-135 -910 -34 -37 c-51 -57 -67 -96 -72 -178 -4 -63 0 -85 18 -128 41 -96
148 -171 256 -180 137 -11 258 74 298 209 10 32 65 80 451 385 865 686 996
789 1005 792 7 2 10 -223 10 -625 l0 -628 -431 -430 c-237 -237 -439 -447
-450 -467 -26 -50 -25 -136 1 -188 31 -61 111 -110 178 -110 80 0 96 13 397
312 160 158 294 288 298 288 4 0 7 -199 7 -443 l0 -442 -166 -165 c-91 -91
-174 -182 -185 -202 -26 -50 -25 -136 1 -188 32 -63 111 -110 184 -110 37 0
112 33 144 62 l22 21 0 -264 0 -265 26 -52 c93 -187 355 -187 448 0 26 52 26
52 26 315 l0 264 38 -30 c138 -111 332 -21 332 154 0 36 -7 69 -19 93 -11 20
-94 111 -185 202 l-166 165 0 442 c0 244 3 443 7 443 4 0 138 -130 298 -288
301 -299 317 -312 397 -312 67 0 147 49 178 110 26 52 27 138 1 188 -11 20
-213 230 -450 467 l-431 430 0 627 c0 346 3 628 8 628 4 0 331 -257 727 -571
642 -509 721 -574 731 -607 27 -91 98 -168 181 -196 132 -45 286 16 361 142
24 42 27 57 27 137 0 99 -10 128 -69 193 l-34 37 -135 910 c-74 501 -133 911
-132 913 2 2 245 -136 541 -307 334 -192 544 -319 552 -333 7 -13 76 -259 153
-548 77 -289 146 -549 155 -577 36 -129 167 -196 279 -144 72 33 125 111 125
182 0 25 -181 725 -205 797 -3 7 -1 11 3 9 70 -41 768 -441 770 -443 2 -1 30
-101 62 -223 33 -122 66 -234 75 -250 37 -72 139 -119 218 -101 111 25 187
141 159 244 -6 20 -9 36 -8 36 2 0 100 -56 219 -125 153 -89 231 -128 267
-135 164 -31 316 109 297 273 -8 59 -50 140 -91 170 -17 13 -120 75 -228 137
-109 63 -198 117 -198 121 0 4 14 11 31 14 64 14 139 118 139 191 0 101 -100
204 -199 204 -22 0 -140 -27 -262 -60 l-223 -59 -383 221 c-211 121 -383 223
-383 227 0 4 168 51 373 105 204 54 390 108 412 120 21 11 53 41 70 64 26 38
30 52 30 112 0 60 -4 74 -30 112 -41 58 -96 88 -161 88 -35 0 -226 -47 -595
-145 -299 -80 -560 -150 -579 -156 -34 -10 -46 -4 -575 301 -297 172 -543 315
-547 319 -4 3 207 91 470 195 262 104 648 257 857 340 l380 151 45 -12 c90
-24 201 8 270 77 113 113 112 308 -3 423 -67 67 -178 98 -266 74 l-45 -12
-440 175 c-243 97 -629 250 -858 340 -230 91 -414 168 -410 172 4 3 250 146
546 317 l539 311 581 -155 c390 -104 597 -155 631 -155 64 0 119 31 160 88 26
38 30 52 30 112 0 60 -4 74 -30 112 -17 23 -49 53 -70 64 -22 12 -204 65 -405
118 -439 117 -400 105 -375 118 11 6 178 102 370 213 193 111 360 207 371 213
18 9 62 1 243 -48 122 -33 239 -60 259 -60 102 1 202 102 202 204 0 73 -75
177 -139 191 -17 3 -31 10 -31 14 0 5 93 62 207 127 216 125 251 151 284 216
74 145 -13 324 -174 358 -86 17 -128 2 -362 -134 l-212 -123 1 66 c1 81 -27
139 -84 177 -82 54 -176 50 -248 -11 -49 -43 -57 -63 -122 -310 -29 -110 -60
-207 -69 -216 -12 -12 -427 -255 -763 -446 -4 -2 -6 2 -3 9 24 72 205 772 205
797 0 100 -101 200 -203 201 -72 0 -161 -56 -187 -119 -5 -14 -80 -284 -164
-599 -85 -316 -158 -578 -162 -582 -13 -13 -1086 -631 -1089 -628 -2 2 3 41
10 88 8 47 68 456 135 910 l122 825 33 37 c60 65 70 94 70 193 0 105 -18 148
-84 208 -122 110 -288 116 -398 14 -47 -43 -69 -79 -87 -138 -10 -33 -92 -101
-731 -608 -396 -314 -723 -571 -727 -571 -5 0 -8 282 -8 628 l0 627 431 430
c237 237 439 447 450 467 27 53 26 141 -4 193 -46 81 -144 120 -237 95 -40
-11 -78 -45 -335 -301 -160 -159 -294 -289 -298 -289 -4 0 -7 199 -7 443 l0
442 166 165 c91 91 174 182 185 202 12 24 19 57 19 93 0 99 -55 170 -153 196
-60 17 -126 1 -179 -42 l-38 -30 0 264 0 265 -28 53 c-59 114 -188 166 -306
124z m-948 -3829 l782 -620 0 -743 c0 -536 -3 -743 -11 -743 -8 0 -1265 719
-1288 737 -2 2 -69 438 -147 970 -79 533 -145 985 -149 1006 -5 36 -4 38 13
25 10 -7 370 -292 800 -632z m2733 -364 c-81 -551 -150 -1004 -152 -1005 -22
-18 -1280 -737 -1288 -737 -8 0 -11 226 -11 743 l0 743 797 632 c439 347 798
630 800 629 1 -2 -65 -454 -146 -1005z m-2865 -1813 c354 -204 644 -375 644
-379 0 -4 -290 -174 -643 -378 l-644 -371 -489 193 c-269 107 -642 254 -829
328 -187 74 -391 155 -452 179 -62 24 -113 46 -113 49 0 3 188 79 417 170 230
91 651 258 938 372 286 114 522 207 524 207 2 1 293 -166 647 -370z m3544 144
c530 -210 1106 -438 1243 -491 37 -15 67 -29 67 -32 0 -3 -210 -88 -468 -190
-257 -101 -680 -269 -941 -372 l-475 -187 -643 371 c-354 204 -642 375 -641
380 6 17 1283 747 1298 742 8 -3 260 -102 560 -221z m-2630 -1711 l0 -747
-657 -520 c-361 -286 -720 -570 -797 -632 -77 -62 -141 -111 -143 -109 -6 6
295 2010 303 2013 5 2 295 170 644 372 349 203 638 369 643 370 4 1 7 -335 7
-747z m1170 365 c344 -198 627 -362 629 -364 5 -3 301 -2006 298 -2010 -1 -1
-361 283 -800 630 l-797 632 0 748 0 748 23 -12 c12 -7 303 -174 647 -372z"/>
<path d="M4285 8635 c23 -57 47 -172 57 -267 25 -244 -39 -531 -147 -664 l-35
-42 43 10 c127 29 373 -52 580 -189 72 -48 216 -183 255 -238 20 -29 20 -27
-3 46 -36 114 -48 234 -42 394 9 220 63 395 154 496 l36 40 -29 -8 c-50 -14
-166 -6 -249 16 -208 57 -456 218 -595 386 -18 22 -29 31 -25 20z m252 -359
c110 -70 230 -124 353 -157 74 -19 73 -15 40 -124 -30 -102 -50 -237 -50 -342
0 -51 -3 -93 -6 -93 -4 0 -38 20 -78 44 -128 81 -236 125 -413 172 -9 2 -7 19
8 61 32 93 58 241 65 366 4 65 8 117 10 117 2 0 34 -20 71 -44z"/>
<path d="M6830 8598 c-171 -190 -500 -349 -725 -352 -44 0 -92 3 -108 7 l-27
7 35 -48 c84 -117 120 -287 112 -527 -5 -167 -24 -269 -67 -370 l-21 -50 60
61 c146 151 355 271 562 325 83 21 209 28 269 15 l35 -8 -26 28 c-97 105 -153
371 -130 612 11 123 37 238 70 316 11 25 19 46 18 45 -1 0 -27 -28 -57 -61z
m-144 -421 c1 -145 8 -197 51 -373 4 -19 -1 -23 -39 -29 -79 -13 -232 -67
-333 -117 -55 -27 -104 -54 -109 -59 -6 -5 -13 -9 -17 -9 -3 0 -9 80 -12 178
-5 164 -21 273 -52 353 -5 13 3 18 42 24 83 12 254 74 358 129 55 30 102 54
105 55 3 1 5 -68 6 -152z"/>
<path d="M3800 6952 c-1 -34 -57 -127 -115 -190 -164 -177 -442 -324 -665
-352 l-55 -6 40 -8 c195 -36 425 -160 586 -313 88 -85 142 -159 169 -236 10
-28 19 -44 19 -33 2 36 63 133 124 196 159 164 405 297 616 334 42 7 69 16 61
18 -8 3 -46 13 -85 22 -85 21 -244 95 -345 162 -92 60 -238 198 -282 267 -18
28 -40 73 -50 101 -9 28 -17 45 -18 38z m294 -500 c60 -40 113 -72 118 -72 22
0 3 -18 -39 -39 -89 -43 -241 -149 -318 -222 l-77 -73 -50 58 c-65 73 -188
173 -295 239 l-83 50 67 35 c111 56 225 136 304 214 l74 73 95 -95 c61 -62
134 -122 204 -168z"/>
<path d="M7381 6990 c-4 -75 -146 -240 -289 -338 -150 -103 -339 -183 -464
-198 -55 -6 -72 -24 -24 -24 73 0 288 -97 428 -192 154 -105 317 -301 318
-382 1 -13 8 -3 19 25 58 149 270 331 498 429 100 42 233 80 284 80 26 0 30 3
19 10 -8 5 -25 10 -36 10 -35 0 -173 50 -259 93 -114 57 -216 128 -306 214
-88 85 -142 159 -169 236 -10 28 -19 45 -19 37z m53 -295 c60 -70 186 -172
293 -238 l83 -50 -67 -34 c-105 -53 -224 -136 -307 -215 l-76 -73 -55 61 c-68
77 -182 169 -285 231 -44 27 -79 50 -80 54 0 3 21 15 48 28 84 41 244 153 317
223 38 37 73 68 76 68 3 0 27 -25 53 -55z"/>
<path d="M5034 5442 c-143 -137 -333 -243 -526 -293 -93 -24 -235 -29 -283
-10 l-30 12 31 -33 c102 -107 158 -368 134 -618 -11 -115 -41 -250 -73 -320
-13 -30 -2 -22 77 55 143 139 331 245 528 296 96 25 249 31 286 11 17 -10 13
-1 -18 40 -22 29 -50 78 -61 108 -81 213 -79 573 5 783 13 31 23 57 22 57 0
-1 -42 -40 -92 -88z m-104 -371 c0 -139 17 -276 45 -360 8 -25 15 -46 15 -47
0 -1 -21 -5 -47 -9 -81 -11 -253 -73 -362 -131 -57 -29 -105 -54 -105 -54 -1
0 -1 66 -2 148 -1 146 -18 273 -48 360 l-14 40 46 7 c102 14 354 113 435 170
12 8 25 15 29 15 5 0 8 -62 8 -139z"/>
<path d="M6105 5565 c55 -153 70 -263 62 -450 -9 -220 -63 -395 -154 -496
l-36 -40 29 8 c16 4 61 7 99 7 217 -4 556 -184 721 -384 48 -59 66 -71 44 -31
-19 36 -48 191 -55 291 -16 234 52 517 154 632 l31 36 -42 -10 c-128 -29 -374
51 -581 189 -70 47 -212 179 -256 238 -14 18 -20 22 -16 10z m249 -364 c116
-76 247 -131 423 -177 9 -2 7 -19 -8 -61 -32 -93 -58 -241 -65 -366 -4 -65 -8
-117 -10 -117 -2 0 -36 21 -76 47 -89 58 -243 126 -340 152 -83 22 -81 16 -48
126 30 102 50 237 50 343 0 50 3 92 7 92 4 0 34 -18 67 -39z"/>
</g>
</svg>
